<svg id="Layer_1" data-name="Layer 1" xmlns="http://www.w3.org/2000/svg" viewBox="0 0 242.09 165.64"><defs><style>.cls-1{fill:#fff;}.cls-2{fill:#f59b41;}</style></defs><title>BBBBEEEEE</title><path class="cls-1" d="M156.57,144.05h49.17c33.68,0,57,11.45,57,40.56,0,16.37-8.72,30.93-24.2,36v1c19.79,3.91,33.68,17,33.68,39.64,0,32.54-25.76,48.45-62.69,48.45H156.57Zm45.61,70.48c28.17,0,39.83-10.39,39.83-27.18,0-19.35-13.26-26.58-38.88-26.58H177.65v53.76Zm4.3,78.43c28.33,0,45-10.2,45-32.53,0-20.4-16.05-29.73-45-29.73H177.65V293Z" transform="translate(-156.57 -144.05)"/><path class="cls-2" d="M300.67,144.05h95.47v17.84H321.75v51.9H384.5v17.84H321.75v60.21h76.91v17.84h-98Z" transform="translate(-156.57 -144.05)"/></svg>