<svg id="Layer_1" data-name="Layer 1" xmlns="http://www.w3.org/2000/svg" viewBox="0 0 273.08 220.02"><defs><style>.cls-1{fill:#231f20;}.cls-2{fill:#f59b41;}</style></defs><title>NEW BBEE</title><path class="cls-1" d="M156.57,144.05h49.17c33.68,0,57,11.45,57,40.56,0,16.37-8.72,30.93-24.2,36v1c19.79,3.91,33.68,17,33.68,39.64,0,32.54-25.76,48.45-62.69,48.45H156.57Zm45.61,70.48c28.17,0,39.83-10.39,39.83-27.18,0-19.35-13.26-26.58-38.88-26.58H177.65v53.76Zm4.3,78.43c28.33,0,45-10.2,45-32.53,0-20.4-16.05-29.73-45-29.73H177.65V293Z" transform="translate(-141.66 -144.05)"/><path class="cls-2" d="M300.67,144.05h95.47v17.84H321.75v51.9H384.5v17.84H321.75v60.21h76.91v17.84h-98Z" transform="translate(-141.66 -144.05)"/><path class="cls-2" d="M141.66,320.08h12.82c8.78,0,14.86,3,14.86,10.58,0,4.27-2.27,8.06-6.31,9.38v.26c5.16,1,8.78,4.43,8.78,10.34,0,8.49-6.72,12.63-16.35,12.63h-13.8Zm11.89,18.38c7.35,0,10.39-2.71,10.39-7.09,0-5-3.46-6.93-10.14-6.93h-6.65v14Zm1.12,20.45c7.39,0,11.74-2.66,11.74-8.48,0-5.32-4.18-7.75-11.74-7.75h-7.52v16.23Z" transform="translate(-141.66 -144.05)"/><path class="cls-2" d="M180.36,320.08h5.49v43.19h-5.49Z" transform="translate(-141.66 -144.05)"/><path class="cls-2" d="M197.67,320.08h13.52c8.8,0,15.12,3.16,15.12,12.16,0,8.63-6.32,12.78-15.12,12.78h-8v18.25h-5.49Zm12.73,20.48c6.72,0,10.42-2.72,10.42-8.32s-3.7-7.7-10.42-7.7h-7.24v16Zm-.29,2.95,4.31-2.84,13.18,22.6h-6.24Z" transform="translate(-141.66 -144.05)"/><path class="cls-2" d="M235.11,320.08h10.81c13.28,0,20.4,7.72,20.4,21.44s-7.12,21.75-20.16,21.75h-11Zm10.4,38.69c10.1,0,15.13-6.33,15.13-17.25s-5-16.93-15.13-16.93h-4.9v34.18Z" transform="translate(-141.66 -144.05)"/><path class="cls-2" d="M272.46,357.65l3.28-3.77a16.86,16.86,0,0,0,11.92,5.35c5.67,0,9-2.82,9-7,0-4.41-3.13-5.82-7.21-7.6l-6.2-2.73c-4-1.72-8.75-4.77-8.75-11.12,0-6.6,5.75-11.47,13.6-11.47a17.85,17.85,0,0,1,12.72,5.35l-2.92,3.53a13.83,13.83,0,0,0-9.8-4.05c-4.84,0-8.05,2.45-8.05,6.31,0,4.16,3.77,5.72,7.15,7.15l6.15,2.66c5,2.15,8.9,5.13,8.9,11.55,0,6.82-5.64,12.27-14.72,12.27A20.67,20.67,0,0,1,272.46,357.65Z" transform="translate(-141.66 -144.05)"/><path class="cls-1" d="M323.9,320.08h24.89v4.65h-19.4v13.54h16.37v4.65H329.39v15.7h20.06v4.65H323.9Z" transform="translate(-141.66 -144.05)"/><path class="cls-1" d="M365.58,346.54l-13-26.46h5.87l5.57,12.2c1.39,3.18,2.69,6.18,4.18,9.41h.27c1.49-3.23,3-6.23,4.31-9.41l5.57-12.2h5.69l-13,26.46v16.73h-5.5Z" transform="translate(-141.66 -144.05)"/><path class="cls-1" d="M389.18,320.08h24.9v4.65h-19.4v13.54H411v4.65H394.68v15.7h20.06v4.65H389.18Z" transform="translate(-141.66 -144.05)"/></svg>